<svg width="1628" height="298" viewBox="0 0 1628 298" fill="none" xmlns="http://www.w3.org/2000/svg">
<rect width="1628" height="298" rx="149" fill="#141414"/>
<g clip-path="url(#clip0_98_10)">
<path d="M314 24H64V274H314V24Z" fill="#141414"/>
<path d="M188.756 206.719H263.28M114.232 90.793L180.476 148.756L114.232 206.719" stroke="url(#paint0_linear_98_10)" stroke-width="37" stroke-linecap="round" stroke-linejoin="round"/>
</g>
<path d="M349.273 102.409H362.727L394.364 179.682H395.455L427.091 102.409H440.545V195.5H430V124.773H429.091L400 195.5H389.818L360.727 124.773H359.818V195.5H349.273V102.409ZM490.057 196.955C483.754 196.955 478.223 195.455 473.466 192.455C468.739 189.455 465.042 185.258 462.375 179.864C459.739 174.47 458.42 168.167 458.42 160.955C458.42 153.682 459.739 147.333 462.375 141.909C465.042 136.485 468.739 132.273 473.466 129.273C478.223 126.273 483.754 124.773 490.057 124.773C496.36 124.773 501.875 126.273 506.602 129.273C511.36 132.273 515.057 136.485 517.693 141.909C520.36 147.333 521.693 153.682 521.693 160.955C521.693 168.167 520.36 174.47 517.693 179.864C515.057 185.258 511.36 189.455 506.602 192.455C501.875 195.455 496.36 196.955 490.057 196.955ZM490.057 187.318C494.845 187.318 498.784 186.091 501.875 183.636C504.966 181.182 507.254 177.955 508.739 173.955C510.223 169.955 510.966 165.621 510.966 160.955C510.966 156.288 510.223 151.939 508.739 147.909C507.254 143.879 504.966 140.621 501.875 138.136C498.784 135.652 494.845 134.409 490.057 134.409C485.269 134.409 481.33 135.652 478.239 138.136C475.148 140.621 472.86 143.879 471.375 147.909C469.89 151.939 469.148 156.288 469.148 160.955C469.148 165.621 469.89 169.955 471.375 173.955C472.86 177.955 475.148 181.182 478.239 183.636C481.33 186.091 485.269 187.318 490.057 187.318ZM548.795 153.5V195.5H538.068V125.682H548.432V136.591H549.341C550.977 133.045 553.462 130.197 556.795 128.045C560.129 125.864 564.432 124.773 569.705 124.773C574.432 124.773 578.568 125.742 582.114 127.682C585.659 129.591 588.417 132.5 590.386 136.409C592.356 140.288 593.341 145.197 593.341 151.136V195.5H582.614V151.864C582.614 146.379 581.189 142.106 578.341 139.045C575.492 135.955 571.583 134.409 566.614 134.409C563.189 134.409 560.129 135.152 557.432 136.636C554.765 138.121 552.659 140.288 551.114 143.136C549.568 145.985 548.795 149.439 548.795 153.5ZM641.307 196.955C635.004 196.955 629.473 195.455 624.716 192.455C619.989 189.455 616.292 185.258 613.625 179.864C610.989 174.47 609.67 168.167 609.67 160.955C609.67 153.682 610.989 147.333 613.625 141.909C616.292 136.485 619.989 132.273 624.716 129.273C629.473 126.273 635.004 124.773 641.307 124.773C647.61 124.773 653.125 126.273 657.852 129.273C662.61 132.273 666.307 136.485 668.943 141.909C671.61 147.333 672.943 153.682 672.943 160.955C672.943 168.167 671.61 174.47 668.943 179.864C666.307 185.258 662.61 189.455 657.852 192.455C653.125 195.455 647.61 196.955 641.307 196.955ZM641.307 187.318C646.095 187.318 650.034 186.091 653.125 183.636C656.216 181.182 658.504 177.955 659.989 173.955C661.473 169.955 662.216 165.621 662.216 160.955C662.216 156.288 661.473 151.939 659.989 147.909C658.504 143.879 656.216 140.621 653.125 138.136C650.034 135.652 646.095 134.409 641.307 134.409C636.519 134.409 632.58 135.652 629.489 138.136C626.398 140.621 624.11 143.879 622.625 147.909C621.14 151.939 620.398 156.288 620.398 160.955C620.398 165.621 621.14 169.955 622.625 173.955C624.11 177.955 626.398 181.182 629.489 183.636C632.58 186.091 636.519 187.318 641.307 187.318ZM801.682 131.5H790.409C789.742 128.258 788.576 125.409 786.909 122.955C785.273 120.5 783.273 118.439 780.909 116.773C778.576 115.076 775.985 113.803 773.136 112.955C770.288 112.106 767.318 111.682 764.227 111.682C758.591 111.682 753.485 113.106 748.909 115.955C744.364 118.803 740.742 123 738.045 128.545C735.379 134.091 734.045 140.894 734.045 148.955C734.045 157.015 735.379 163.818 738.045 169.364C740.742 174.909 744.364 179.106 748.909 181.955C753.485 184.803 758.591 186.227 764.227 186.227C767.318 186.227 770.288 185.803 773.136 184.955C775.985 184.106 778.576 182.848 780.909 181.182C783.273 179.485 785.273 177.409 786.909 174.955C788.576 172.47 789.742 169.621 790.409 166.409H801.682C800.833 171.167 799.288 175.424 797.045 179.182C794.803 182.939 792.015 186.136 788.682 188.773C785.348 191.379 781.606 193.364 777.455 194.727C773.333 196.091 768.924 196.773 764.227 196.773C756.288 196.773 749.227 194.833 743.045 190.955C736.864 187.076 732 181.561 728.455 174.409C724.909 167.258 723.136 158.773 723.136 148.955C723.136 139.136 724.909 130.652 728.455 123.5C732 116.348 736.864 110.833 743.045 106.955C749.227 103.076 756.288 101.136 764.227 101.136C768.924 101.136 773.333 101.818 777.455 103.182C781.606 104.545 785.348 106.545 788.682 109.182C792.015 111.788 794.803 114.97 797.045 118.727C799.288 122.455 800.833 126.712 801.682 131.5ZM846.807 196.955C840.504 196.955 834.973 195.455 830.216 192.455C825.489 189.455 821.792 185.258 819.125 179.864C816.489 174.47 815.17 168.167 815.17 160.955C815.17 153.682 816.489 147.333 819.125 141.909C821.792 136.485 825.489 132.273 830.216 129.273C834.973 126.273 840.504 124.773 846.807 124.773C853.11 124.773 858.625 126.273 863.352 129.273C868.11 132.273 871.807 136.485 874.443 141.909C877.11 147.333 878.443 153.682 878.443 160.955C878.443 168.167 877.11 174.47 874.443 179.864C871.807 185.258 868.11 189.455 863.352 192.455C858.625 195.455 853.11 196.955 846.807 196.955ZM846.807 187.318C851.595 187.318 855.534 186.091 858.625 183.636C861.716 181.182 864.004 177.955 865.489 173.955C866.973 169.955 867.716 165.621 867.716 160.955C867.716 156.288 866.973 151.939 865.489 147.909C864.004 143.879 861.716 140.621 858.625 138.136C855.534 135.652 851.595 134.409 846.807 134.409C842.019 134.409 838.08 135.652 834.989 138.136C831.898 140.621 829.61 143.879 828.125 147.909C826.64 151.939 825.898 156.288 825.898 160.955C825.898 165.621 826.64 169.955 828.125 173.955C829.61 177.955 831.898 181.182 834.989 183.636C838.08 186.091 842.019 187.318 846.807 187.318ZM921.182 196.955C915.364 196.955 910.227 195.485 905.773 192.545C901.318 189.576 897.833 185.394 895.318 180C892.803 174.576 891.545 168.167 891.545 160.773C891.545 153.439 892.803 147.076 895.318 141.682C897.833 136.288 901.333 132.121 905.818 129.182C910.303 126.242 915.485 124.773 921.364 124.773C925.909 124.773 929.5 125.53 932.136 127.045C934.803 128.53 936.833 130.227 938.227 132.136C939.652 134.015 940.758 135.561 941.545 136.773H942.455V102.409H953.182V195.5H942.818V184.773H941.545C940.758 186.045 939.636 187.652 938.182 189.591C936.727 191.5 934.652 193.212 931.955 194.727C929.258 196.212 925.667 196.955 921.182 196.955ZM922.636 187.318C926.939 187.318 930.576 186.197 933.545 183.955C936.515 181.682 938.773 178.545 940.318 174.545C941.864 170.515 942.636 165.864 942.636 160.591C942.636 155.379 941.879 150.818 940.364 146.909C938.848 142.97 936.606 139.909 933.636 137.727C930.667 135.515 927 134.409 922.636 134.409C918.091 134.409 914.303 135.576 911.273 137.909C908.273 140.212 906.015 143.348 904.5 147.318C903.015 151.258 902.273 155.682 902.273 160.591C902.273 165.561 903.03 170.076 904.545 174.136C906.091 178.167 908.364 181.379 911.364 183.773C914.394 186.136 918.152 187.318 922.636 187.318ZM1003.59 196.955C996.864 196.955 991.061 195.47 986.182 192.5C981.333 189.5 977.591 185.318 974.955 179.955C972.348 174.561 971.045 168.288 971.045 161.136C971.045 153.985 972.348 147.682 974.955 142.227C977.591 136.742 981.258 132.47 985.955 129.409C990.682 126.318 996.197 124.773 1002.5 124.773C1006.14 124.773 1009.73 125.379 1013.27 126.591C1016.82 127.803 1020.05 129.773 1022.95 132.5C1025.86 135.197 1028.18 138.773 1029.91 143.227C1031.64 147.682 1032.5 153.167 1032.5 159.682V164.227H978.682V154.955H1021.59C1021.59 151.015 1020.8 147.5 1019.23 144.409C1017.68 141.318 1015.47 138.879 1012.59 137.091C1009.74 135.303 1006.38 134.409 1002.5 134.409C998.227 134.409 994.53 135.47 991.409 137.591C988.318 139.682 985.939 142.409 984.273 145.773C982.606 149.136 981.773 152.742 981.773 156.591V162.773C981.773 168.045 982.682 172.515 984.5 176.182C986.348 179.818 988.909 182.591 992.182 184.5C995.455 186.379 999.258 187.318 1003.59 187.318C1006.41 187.318 1008.95 186.924 1011.23 186.136C1013.53 185.318 1015.52 184.106 1017.18 182.5C1018.85 180.864 1020.14 178.833 1021.05 176.409L1031.41 179.318C1030.32 182.833 1028.48 185.924 1025.91 188.591C1023.33 191.227 1020.15 193.288 1016.36 194.773C1012.58 196.227 1008.32 196.955 1003.59 196.955ZM1137.18 125.682C1136.64 121.076 1134.42 117.5 1130.55 114.955C1126.67 112.409 1121.91 111.136 1116.27 111.136C1112.15 111.136 1108.55 111.803 1105.45 113.136C1102.39 114.47 1100 116.303 1098.27 118.636C1096.58 120.97 1095.73 123.621 1095.73 126.591C1095.73 129.076 1096.32 131.212 1097.5 133C1098.71 134.758 1100.26 136.227 1102.14 137.409C1104.02 138.561 1105.98 139.515 1108.05 140.273C1110.11 141 1112 141.591 1113.73 142.045L1123.18 144.591C1125.61 145.227 1128.3 146.106 1131.27 147.227C1134.27 148.348 1137.14 149.879 1139.86 151.818C1142.62 153.727 1144.89 156.182 1146.68 159.182C1148.47 162.182 1149.36 165.864 1149.36 170.227C1149.36 175.258 1148.05 179.803 1145.41 183.864C1142.8 187.924 1138.98 191.152 1133.95 193.545C1128.95 195.939 1122.88 197.136 1115.73 197.136C1109.06 197.136 1103.29 196.061 1098.41 193.909C1093.56 191.758 1089.74 188.758 1086.95 184.909C1084.2 181.061 1082.64 176.591 1082.27 171.5H1093.91C1094.21 175.015 1095.39 177.924 1097.45 180.227C1099.55 182.5 1102.18 184.197 1105.36 185.318C1108.58 186.409 1112.03 186.955 1115.73 186.955C1120.03 186.955 1123.89 186.258 1127.32 184.864C1130.74 183.439 1133.45 181.47 1135.45 178.955C1137.45 176.409 1138.45 173.439 1138.45 170.045C1138.45 166.955 1137.59 164.439 1135.86 162.5C1134.14 160.561 1131.86 158.985 1129.05 157.773C1126.23 156.561 1123.18 155.5 1119.91 154.591L1108.45 151.318C1101.18 149.227 1095.42 146.242 1091.18 142.364C1086.94 138.485 1084.82 133.409 1084.82 127.136C1084.82 121.924 1086.23 117.379 1089.05 113.5C1091.89 109.591 1095.71 106.561 1100.5 104.409C1105.32 102.227 1110.7 101.136 1116.64 101.136C1122.64 101.136 1127.97 102.212 1132.64 104.364C1137.3 106.485 1141 109.394 1143.73 113.091C1146.48 116.788 1147.94 120.985 1148.09 125.682H1137.18ZM1194.81 196.955C1188.26 196.955 1182.63 195.409 1177.9 192.318C1173.17 189.227 1169.53 184.97 1166.99 179.545C1164.44 174.121 1163.17 167.924 1163.17 160.955C1163.17 153.864 1164.47 147.606 1167.08 142.182C1169.72 136.727 1173.38 132.47 1178.08 129.409C1182.81 126.318 1188.32 124.773 1194.62 124.773C1199.53 124.773 1203.96 125.682 1207.9 127.5C1211.84 129.318 1215.06 131.864 1217.58 135.136C1220.09 138.409 1221.66 142.227 1222.26 146.591H1211.53C1210.72 143.409 1208.9 140.591 1206.08 138.136C1203.29 135.652 1199.53 134.409 1194.81 134.409C1190.63 134.409 1186.96 135.5 1183.81 137.682C1180.69 139.833 1178.25 142.879 1176.49 146.818C1174.76 150.727 1173.9 155.318 1173.9 160.591C1173.9 165.985 1174.75 170.682 1176.44 174.682C1178.17 178.682 1180.59 181.788 1183.72 184C1186.87 186.212 1190.56 187.318 1194.81 187.318C1197.59 187.318 1200.12 186.833 1202.4 185.864C1204.67 184.894 1206.59 183.5 1208.17 181.682C1209.75 179.864 1210.87 177.682 1211.53 175.136H1222.26C1221.66 179.258 1220.16 182.97 1217.76 186.273C1215.4 189.545 1212.26 192.152 1208.35 194.091C1204.47 196 1199.96 196.955 1194.81 196.955ZM1248.67 153.5V195.5H1237.94V102.409H1248.67V136.591H1249.58C1251.22 132.985 1253.67 130.121 1256.94 128C1260.25 125.848 1264.64 124.773 1270.12 124.773C1274.88 124.773 1279.05 125.727 1282.62 127.636C1286.2 129.515 1288.97 132.409 1290.94 136.318C1292.94 140.197 1293.94 145.136 1293.94 151.136V195.5H1283.22V151.864C1283.22 146.318 1281.78 142.03 1278.9 139C1276.05 135.939 1272.09 134.409 1267.03 134.409C1263.52 134.409 1260.37 135.152 1257.58 136.636C1254.82 138.121 1252.64 140.288 1251.03 143.136C1249.46 145.985 1248.67 149.439 1248.67 153.5ZM1342.84 196.955C1336.11 196.955 1330.31 195.47 1325.43 192.5C1320.58 189.5 1316.84 185.318 1314.2 179.955C1311.6 174.561 1310.3 168.288 1310.3 161.136C1310.3 153.985 1311.6 147.682 1314.2 142.227C1316.84 136.742 1320.51 132.47 1325.2 129.409C1329.93 126.318 1335.45 124.773 1341.75 124.773C1345.39 124.773 1348.98 125.379 1352.52 126.591C1356.07 127.803 1359.3 129.773 1362.2 132.5C1365.11 135.197 1367.43 138.773 1369.16 143.227C1370.89 147.682 1371.75 153.167 1371.75 159.682V164.227H1317.93V154.955H1360.84C1360.84 151.015 1360.05 147.5 1358.48 144.409C1356.93 141.318 1354.72 138.879 1351.84 137.091C1348.99 135.303 1345.63 134.409 1341.75 134.409C1337.48 134.409 1333.78 135.47 1330.66 137.591C1327.57 139.682 1325.19 142.409 1323.52 145.773C1321.86 149.136 1321.02 152.742 1321.02 156.591V162.773C1321.02 168.045 1321.93 172.515 1323.75 176.182C1325.6 179.818 1328.16 182.591 1331.43 184.5C1334.7 186.379 1338.51 187.318 1342.84 187.318C1345.66 187.318 1348.2 186.924 1350.48 186.136C1352.78 185.318 1354.77 184.106 1356.43 182.5C1358.1 180.864 1359.39 178.833 1360.3 176.409L1370.66 179.318C1369.57 182.833 1367.73 185.924 1365.16 188.591C1362.58 191.227 1359.4 193.288 1355.61 194.773C1351.83 196.227 1347.57 196.955 1342.84 196.955ZM1388.07 195.5V125.682H1398.43V136.591H1399.34C1400.8 132.864 1403.14 129.97 1406.39 127.909C1409.63 125.818 1413.52 124.773 1418.07 124.773C1422.67 124.773 1426.51 125.818 1429.57 127.909C1432.66 129.97 1435.07 132.864 1436.8 136.591H1437.52C1439.31 132.985 1441.99 130.121 1445.57 128C1449.14 125.848 1453.43 124.773 1458.43 124.773C1464.67 124.773 1469.78 126.727 1473.75 130.636C1477.72 134.515 1479.7 140.561 1479.7 148.773V195.5H1468.98V148.773C1468.98 143.621 1467.57 139.939 1464.75 137.727C1461.93 135.515 1458.61 134.409 1454.8 134.409C1449.89 134.409 1446.08 135.894 1443.39 138.864C1440.69 141.803 1439.34 145.53 1439.34 150.045V195.5H1428.43V147.682C1428.43 143.712 1427.14 140.515 1424.57 138.091C1421.99 135.636 1418.67 134.409 1414.61 134.409C1411.83 134.409 1409.22 135.152 1406.8 136.636C1404.4 138.121 1402.46 140.182 1400.98 142.818C1399.52 145.424 1398.8 148.439 1398.8 151.864V195.5H1388.07ZM1528.59 196.955C1521.86 196.955 1516.06 195.47 1511.18 192.5C1506.33 189.5 1502.59 185.318 1499.95 179.955C1497.35 174.561 1496.05 168.288 1496.05 161.136C1496.05 153.985 1497.35 147.682 1499.95 142.227C1502.59 136.742 1506.26 132.47 1510.95 129.409C1515.68 126.318 1521.2 124.773 1527.5 124.773C1531.14 124.773 1534.73 125.379 1538.27 126.591C1541.82 127.803 1545.05 129.773 1547.95 132.5C1550.86 135.197 1553.18 138.773 1554.91 143.227C1556.64 147.682 1557.5 153.167 1557.5 159.682V164.227H1503.68V154.955H1546.59C1546.59 151.015 1545.8 147.5 1544.23 144.409C1542.68 141.318 1540.47 138.879 1537.59 137.091C1534.74 135.303 1531.38 134.409 1527.5 134.409C1523.23 134.409 1519.53 135.47 1516.41 137.591C1513.32 139.682 1510.94 142.409 1509.27 145.773C1507.61 149.136 1506.77 152.742 1506.77 156.591V162.773C1506.77 168.045 1507.68 172.515 1509.5 176.182C1511.35 179.818 1513.91 182.591 1517.18 184.5C1520.45 186.379 1524.26 187.318 1528.59 187.318C1531.41 187.318 1533.95 186.924 1536.23 186.136C1538.53 185.318 1540.52 184.106 1542.18 182.5C1543.85 180.864 1545.14 178.833 1546.05 176.409L1556.41 179.318C1555.32 182.833 1553.48 185.924 1550.91 188.591C1548.33 191.227 1545.15 193.288 1541.36 194.773C1537.58 196.227 1533.32 196.955 1528.59 196.955Z" fill="white"/>
<defs>
<linearGradient id="paint0_linear_98_10" x1="188.756" y1="90.793" x2="188.756" y2="206.719" gradientUnits="userSpaceOnUse">
<stop stop-color="#FF7272"/>
<stop offset="0.139423" stop-color="#FFAD72"/>
<stop offset="0.278846" stop-color="#FFDE72"/>
<stop offset="0.389423" stop-color="#A8FF72"/>
<stop offset="0.5" stop-color="#72FF7B"/>
<stop offset="0.572115" stop-color="#72E0FF"/>
<stop offset="0.682692" stop-color="#72BBFF"/>
<stop offset="0.841346" stop-color="#C272FF"/>
<stop offset="0.947115" stop-color="#FF72F6"/>
</linearGradient>
<clipPath id="clip0_98_10">
<rect width="250" height="250" fill="white" transform="translate(64 24)"/>
</clipPath>
</defs>
</svg>
