<svg width="196" height="68" viewBox="0 0 196 68" fill="none" xmlns="http://www.w3.org/2000/svg">
<rect x="1" y="1" width="194" height="66" rx="33" fill="#141414"/>
<rect x="1" y="1" width="194" height="66" rx="33" stroke="#202020" stroke-width="2"/>
<path d="M85.0114 28.3636H88.0455L91.25 36.1818H91.3864L94.5909 28.3636H97.625V40H95.2386V32.4261H95.142L92.1307 39.9432H90.5057L87.4943 32.3977H87.3977V40H85.0114V28.3636ZM103.55 40.1705C102.667 40.1705 101.904 39.983 101.26 39.608C100.62 39.2292 100.125 38.7027 99.777 38.0284C99.4285 37.3504 99.2543 36.5644 99.2543 35.6705C99.2543 34.7689 99.4285 33.9811 99.777 33.3068C100.125 32.6288 100.62 32.1023 101.26 31.7273C101.904 31.3485 102.667 31.1591 103.55 31.1591C104.432 31.1591 105.194 31.3485 105.834 31.7273C106.478 32.1023 106.974 32.6288 107.322 33.3068C107.671 33.9811 107.845 34.7689 107.845 35.6705C107.845 36.5644 107.671 37.3504 107.322 38.0284C106.974 38.7027 106.478 39.2292 105.834 39.608C105.194 39.983 104.432 40.1705 103.55 40.1705ZM103.561 38.2955C103.963 38.2955 104.298 38.1818 104.567 37.9545C104.836 37.7235 105.038 37.4091 105.175 37.0114C105.315 36.6136 105.385 36.161 105.385 35.6534C105.385 35.1458 105.315 34.6932 105.175 34.2955C105.038 33.8977 104.836 33.5833 104.567 33.3523C104.298 33.1212 103.963 33.0057 103.561 33.0057C103.156 33.0057 102.815 33.1212 102.538 33.3523C102.266 33.5833 102.059 33.8977 101.919 34.2955C101.783 34.6932 101.714 35.1458 101.714 35.6534C101.714 36.161 101.783 36.6136 101.919 37.0114C102.059 37.4091 102.266 37.7235 102.538 37.9545C102.815 38.1818 103.156 38.2955 103.561 38.2955ZM111.839 34.9545V40H109.419V31.2727H111.726V32.8125H111.828C112.021 32.3049 112.345 31.9034 112.8 31.608C113.254 31.3087 113.805 31.1591 114.453 31.1591C115.059 31.1591 115.588 31.2917 116.038 31.5568C116.489 31.822 116.839 32.2008 117.089 32.6932C117.339 33.1818 117.464 33.7652 117.464 34.4432V40H115.044V34.875C115.048 34.3409 114.911 33.9242 114.635 33.625C114.358 33.322 113.978 33.1705 113.493 33.1705C113.167 33.1705 112.879 33.2405 112.629 33.3807C112.383 33.5208 112.19 33.7254 112.05 33.9943C111.913 34.2595 111.843 34.5795 111.839 34.9545ZM123.315 40.1705C122.433 40.1705 121.67 39.983 121.026 39.608C120.385 39.2292 119.891 38.7027 119.543 38.0284C119.194 37.3504 119.02 36.5644 119.02 35.6705C119.02 34.7689 119.194 33.9811 119.543 33.3068C119.891 32.6288 120.385 32.1023 121.026 31.7273C121.67 31.3485 122.433 31.1591 123.315 31.1591C124.198 31.1591 124.959 31.3485 125.599 31.7273C126.243 32.1023 126.74 32.6288 127.088 33.3068C127.437 33.9811 127.611 34.7689 127.611 35.6705C127.611 36.5644 127.437 37.3504 127.088 38.0284C126.74 38.7027 126.243 39.2292 125.599 39.608C124.959 39.983 124.198 40.1705 123.315 40.1705ZM123.327 38.2955C123.728 38.2955 124.063 38.1818 124.332 37.9545C124.601 37.7235 124.804 37.4091 124.94 37.0114C125.08 36.6136 125.151 36.161 125.151 35.6534C125.151 35.1458 125.08 34.6932 124.94 34.2955C124.804 33.8977 124.601 33.5833 124.332 33.3523C124.063 33.1212 123.728 33.0057 123.327 33.0057C122.921 33.0057 122.58 33.1212 122.304 33.3523C122.031 33.5833 121.825 33.8977 121.685 34.2955C121.548 34.6932 121.48 35.1458 121.48 35.6534C121.48 36.161 121.548 36.6136 121.685 37.0114C121.825 37.4091 122.031 37.7235 122.304 37.9545C122.58 38.1818 122.921 38.2955 123.327 38.2955ZM139.497 32.4375H137.009C136.963 32.1155 136.87 31.8295 136.73 31.5795C136.59 31.3258 136.41 31.1098 136.19 30.9318C135.971 30.7538 135.717 30.6174 135.429 30.5227C135.145 30.428 134.836 30.3807 134.503 30.3807C133.901 30.3807 133.376 30.5303 132.929 30.8295C132.482 31.125 132.135 31.5568 131.889 32.125C131.643 32.6894 131.52 33.375 131.52 34.1818C131.52 35.0114 131.643 35.7083 131.889 36.2727C132.139 36.8371 132.488 37.2633 132.935 37.5511C133.382 37.839 133.899 37.983 134.486 37.983C134.815 37.983 135.12 37.9394 135.401 37.8523C135.685 37.7652 135.937 37.6383 136.156 37.4716C136.376 37.3011 136.558 37.0947 136.702 36.8523C136.849 36.6098 136.952 36.3333 137.009 36.0227L139.497 36.0341C139.433 36.5682 139.272 37.0833 139.014 37.5795C138.76 38.072 138.418 38.5133 137.986 38.9034C137.558 39.2898 137.046 39.5966 136.452 39.8239C135.861 40.0473 135.192 40.1591 134.446 40.1591C133.408 40.1591 132.48 39.9242 131.662 39.4545C130.848 38.9848 130.204 38.3049 129.73 37.4148C129.26 36.5246 129.026 35.447 129.026 34.1818C129.026 32.9129 129.264 31.8333 129.741 30.9432C130.219 30.053 130.866 29.375 131.685 28.9091C132.503 28.4394 133.423 28.2045 134.446 28.2045C135.12 28.2045 135.745 28.2992 136.321 28.4886C136.901 28.678 137.414 28.9545 137.861 29.3182C138.308 29.678 138.671 30.1193 138.952 30.642C139.236 31.1648 139.418 31.7633 139.497 32.4375ZM145.159 40.1705C144.277 40.1705 143.513 39.983 142.869 39.608C142.229 39.2292 141.735 38.7027 141.386 38.0284C141.038 37.3504 140.864 36.5644 140.864 35.6705C140.864 34.7689 141.038 33.9811 141.386 33.3068C141.735 32.6288 142.229 32.1023 142.869 31.7273C143.513 31.3485 144.277 31.1591 145.159 31.1591C146.042 31.1591 146.803 31.3485 147.443 31.7273C148.087 32.1023 148.583 32.6288 148.932 33.3068C149.28 33.9811 149.455 34.7689 149.455 35.6705C149.455 36.5644 149.28 37.3504 148.932 38.0284C148.583 38.7027 148.087 39.2292 147.443 39.608C146.803 39.983 146.042 40.1705 145.159 40.1705ZM145.17 38.2955C145.572 38.2955 145.907 38.1818 146.176 37.9545C146.445 37.7235 146.648 37.4091 146.784 37.0114C146.924 36.6136 146.994 36.161 146.994 35.6534C146.994 35.1458 146.924 34.6932 146.784 34.2955C146.648 33.8977 146.445 33.5833 146.176 33.3523C145.907 33.1212 145.572 33.0057 145.17 33.0057C144.765 33.0057 144.424 33.1212 144.148 33.3523C143.875 33.5833 143.669 33.8977 143.528 34.2955C143.392 34.6932 143.324 35.1458 143.324 35.6534C143.324 36.161 143.392 36.6136 143.528 37.0114C143.669 37.4091 143.875 37.7235 144.148 37.9545C144.424 38.1818 144.765 38.2955 145.17 38.2955ZM154.244 40.142C153.581 40.142 152.981 39.9716 152.443 39.6307C151.909 39.286 151.485 38.7803 151.17 38.1136C150.86 37.4432 150.705 36.6212 150.705 35.6477C150.705 34.6477 150.866 33.8163 151.188 33.1534C151.509 32.4867 151.938 31.9886 152.472 31.6591C153.009 31.3258 153.598 31.1591 154.239 31.1591C154.727 31.1591 155.134 31.2424 155.46 31.4091C155.79 31.572 156.055 31.7765 156.256 32.0227C156.46 32.2652 156.616 32.5038 156.722 32.7386H156.795V28.3636H159.21V40H156.824V38.6023H156.722C156.608 38.8447 156.447 39.0852 156.239 39.3239C156.034 39.5587 155.767 39.7538 155.438 39.9091C155.112 40.0644 154.714 40.142 154.244 40.142ZM155.011 38.2159C155.402 38.2159 155.731 38.1098 156 37.8977C156.273 37.6818 156.481 37.3807 156.625 36.9943C156.773 36.608 156.847 36.1553 156.847 35.6364C156.847 35.1174 156.775 34.6667 156.631 34.2841C156.487 33.9015 156.278 33.6061 156.006 33.3977C155.733 33.1894 155.402 33.0852 155.011 33.0852C154.614 33.0852 154.278 33.1932 154.006 33.4091C153.733 33.625 153.527 33.9242 153.386 34.3068C153.246 34.6894 153.176 35.1326 153.176 35.6364C153.176 36.1439 153.246 36.5928 153.386 36.983C153.53 37.3693 153.737 37.6723 154.006 37.892C154.278 38.108 154.614 38.2159 155.011 38.2159ZM165.178 40.1705C164.28 40.1705 163.507 39.9886 162.859 39.625C162.215 39.2576 161.719 38.7386 161.371 38.0682C161.022 37.3939 160.848 36.5966 160.848 35.6761C160.848 34.7784 161.022 33.9905 161.371 33.3125C161.719 32.6345 162.21 32.1061 162.842 31.7273C163.479 31.3485 164.225 31.1591 165.081 31.1591C165.657 31.1591 166.193 31.2519 166.689 31.4375C167.189 31.6193 167.625 31.8939 167.996 32.2614C168.371 32.6288 168.662 33.0909 168.871 33.6477C169.079 34.2008 169.183 34.8485 169.183 35.5909V36.2557H161.814V34.7557H166.905C166.905 34.4072 166.829 34.0985 166.678 33.8295C166.526 33.5606 166.316 33.3504 166.047 33.1989C165.782 33.0436 165.473 32.9659 165.121 32.9659C164.753 32.9659 164.428 33.0511 164.143 33.2216C163.863 33.3883 163.643 33.6136 163.484 33.8977C163.325 34.178 163.244 34.4905 163.24 34.8352V36.2614C163.24 36.6932 163.32 37.0663 163.479 37.3807C163.642 37.6951 163.871 37.9375 164.166 38.108C164.462 38.2784 164.812 38.3636 165.217 38.3636C165.486 38.3636 165.732 38.3258 165.956 38.25C166.179 38.1742 166.371 38.0606 166.53 37.9091C166.689 37.7576 166.81 37.572 166.893 37.3523L169.132 37.5C169.018 38.0379 168.786 38.5076 168.433 38.9091C168.085 39.3068 167.634 39.6174 167.081 39.8409C166.532 40.0606 165.897 40.1705 165.178 40.1705Z" fill="white"/>
<path d="M45.5 46.0417H61.625M29.375 20.9584L43.7083 33.5L29.375 46.0417" stroke="url(#paint0_linear_20_35)" stroke-width="4" stroke-linecap="round" stroke-linejoin="round"/>
<defs>
<linearGradient id="paint0_linear_20_35" x1="45.5" y1="20.9584" x2="45.5" y2="46.0417" gradientUnits="userSpaceOnUse">
<stop stop-color="#FF7272"/>
<stop offset="0.139423" stop-color="#FFAD72"/>
<stop offset="0.278846" stop-color="#FFDE72"/>
<stop offset="0.389423" stop-color="#A8FF72"/>
<stop offset="0.5" stop-color="#72FF7B"/>
<stop offset="0.572115" stop-color="#72E0FF"/>
<stop offset="0.682692" stop-color="#72BBFF"/>
<stop offset="0.841346" stop-color="#C272FF"/>
<stop offset="0.947115" stop-color="#FF72F6"/>
</linearGradient>
</defs>
</svg>
