<svg width="233" height="68" viewBox="0 0 233 68" fill="none" xmlns="http://www.w3.org/2000/svg">
<rect x="1" y="1" width="231" height="66" rx="33" fill="#141414"/>
<rect x="1" y="1" width="231" height="66" rx="33" stroke="#202020" stroke-width="2"/>
<path d="M87.6307 40L84.3011 28.3636H86.9886L88.9148 36.4489H89.0114L91.1364 28.3636H93.4375L95.5568 36.4659H95.6591L97.5852 28.3636H100.273L96.9432 40H94.5455L92.3295 32.392H92.2386L90.0284 40H87.6307ZM103.964 34.9545V40H101.544V28.3636H103.896V32.8125H103.999C104.196 32.2973 104.514 31.8939 104.953 31.6023C105.393 31.3068 105.944 31.1591 106.607 31.1591C107.213 31.1591 107.741 31.2917 108.192 31.5568C108.646 31.8182 108.999 32.1951 109.249 32.6875C109.502 33.1761 109.627 33.7614 109.624 34.4432V40H107.203V34.875C107.207 34.3371 107.071 33.9186 106.794 33.6193C106.521 33.3201 106.139 33.1705 105.646 33.1705C105.317 33.1705 105.025 33.2405 104.771 33.3807C104.521 33.5208 104.324 33.7254 104.18 33.9943C104.04 34.2595 103.968 34.5795 103.964 34.9545ZM111.528 40V31.2727H113.949V40H111.528ZM112.744 30.1477C112.384 30.1477 112.076 30.0284 111.818 29.7898C111.564 29.5473 111.438 29.2576 111.438 28.9205C111.438 28.5871 111.564 28.3011 111.818 28.0625C112.076 27.8201 112.384 27.6989 112.744 27.6989C113.104 27.6989 113.411 27.8201 113.665 28.0625C113.922 28.3011 114.051 28.5871 114.051 28.9205C114.051 29.2576 113.922 29.5473 113.665 29.7898C113.411 30.0284 113.104 30.1477 112.744 30.1477ZM123.149 33.7614L120.933 33.8977C120.895 33.7083 120.814 33.5379 120.689 33.3864C120.564 33.2311 120.399 33.108 120.195 33.017C119.994 32.9223 119.753 32.875 119.473 32.875C119.098 32.875 118.782 32.9545 118.524 33.1136C118.267 33.2689 118.138 33.4773 118.138 33.7386C118.138 33.947 118.221 34.1231 118.388 34.267C118.554 34.411 118.84 34.5265 119.246 34.6136L120.825 34.9318C121.674 35.1061 122.306 35.3864 122.723 35.7727C123.14 36.1591 123.348 36.6667 123.348 37.2955C123.348 37.8674 123.179 38.3693 122.842 38.8011C122.509 39.233 122.051 39.5701 121.467 39.8125C120.888 40.0511 120.219 40.1705 119.462 40.1705C118.306 40.1705 117.386 39.9299 116.7 39.4489C116.018 38.964 115.619 38.3049 115.501 37.4716L117.882 37.3466C117.954 37.6989 118.128 37.9678 118.405 38.1534C118.681 38.3352 119.036 38.4261 119.467 38.4261C119.892 38.4261 120.232 38.3447 120.49 38.1818C120.751 38.0152 120.884 37.8011 120.888 37.5398C120.884 37.3201 120.791 37.1402 120.609 37C120.428 36.8561 120.147 36.7462 119.768 36.6705L118.257 36.3693C117.405 36.1989 116.77 35.9034 116.354 35.483C115.941 35.0625 115.734 34.5265 115.734 33.875C115.734 33.3144 115.886 32.8314 116.189 32.4261C116.496 32.0208 116.926 31.7083 117.479 31.4886C118.036 31.2689 118.687 31.1591 119.433 31.1591C120.536 31.1591 121.403 31.392 122.036 31.858C122.672 32.3239 123.043 32.9583 123.149 33.7614ZM127.065 37.4886L127.071 34.5852H127.423L130.219 31.2727H132.997L129.241 35.6591H128.668L127.065 37.4886ZM124.872 40V28.3636H127.293V40H124.872ZM130.327 40L127.759 36.1989L129.372 34.4886L133.162 40H130.327ZM137.803 40.1705C136.905 40.1705 136.132 39.9886 135.484 39.625C134.84 39.2576 134.344 38.7386 133.996 38.0682C133.647 37.3939 133.473 36.5966 133.473 35.6761C133.473 34.7784 133.647 33.9905 133.996 33.3125C134.344 32.6345 134.835 32.1061 135.467 31.7273C136.104 31.3485 136.85 31.1591 137.706 31.1591C138.282 31.1591 138.818 31.2519 139.314 31.4375C139.814 31.6193 140.25 31.8939 140.621 32.2614C140.996 32.6288 141.287 33.0909 141.496 33.6477C141.704 34.2008 141.808 34.8485 141.808 35.5909V36.2557H134.439V34.7557H139.53C139.53 34.4072 139.454 34.0985 139.303 33.8295C139.151 33.5606 138.941 33.3504 138.672 33.1989C138.407 33.0436 138.098 32.9659 137.746 32.9659C137.378 32.9659 137.053 33.0511 136.768 33.2216C136.488 33.3883 136.268 33.6136 136.109 33.8977C135.95 34.178 135.869 34.4905 135.865 34.8352V36.2614C135.865 36.6932 135.945 37.0663 136.104 37.3807C136.267 37.6951 136.496 37.9375 136.791 38.108C137.087 38.2784 137.437 38.3636 137.842 38.3636C138.111 38.3636 138.357 38.3258 138.581 38.25C138.804 38.1742 138.996 38.0606 139.155 37.9091C139.314 37.7576 139.435 37.572 139.518 37.3523L141.757 37.5C141.643 38.0379 141.411 38.5076 141.058 38.9091C140.71 39.3068 140.259 39.6174 139.706 39.8409C139.157 40.0606 138.522 40.1705 137.803 40.1705ZM143.388 40V31.2727H145.734V32.7955H145.825C145.984 32.2538 146.251 31.8447 146.626 31.5682C147.001 31.2879 147.433 31.1477 147.922 31.1477C148.043 31.1477 148.174 31.1553 148.314 31.1705C148.454 31.1856 148.577 31.2064 148.683 31.233V33.3807C148.57 33.3466 148.412 33.3163 148.212 33.2898C148.011 33.2633 147.827 33.25 147.661 33.25C147.304 33.25 146.986 33.3277 146.706 33.483C146.429 33.6345 146.21 33.8466 146.047 34.1193C145.888 34.392 145.808 34.7064 145.808 35.0625V40H143.388ZM157.196 33.7614L154.98 33.8977C154.942 33.7083 154.861 33.5379 154.736 33.3864C154.611 33.2311 154.446 33.108 154.241 33.017C154.041 32.9223 153.8 32.875 153.52 32.875C153.145 32.875 152.829 32.9545 152.571 33.1136C152.313 33.2689 152.185 33.4773 152.185 33.7386C152.185 33.947 152.268 34.1231 152.435 34.267C152.601 34.411 152.887 34.5265 153.293 34.6136L154.872 34.9318C155.721 35.1061 156.353 35.3864 156.77 35.7727C157.187 36.1591 157.395 36.6667 157.395 37.2955C157.395 37.8674 157.226 38.3693 156.889 38.8011C156.556 39.233 156.098 39.5701 155.514 39.8125C154.935 40.0511 154.266 40.1705 153.509 40.1705C152.353 40.1705 151.433 39.9299 150.747 39.4489C150.065 38.964 149.666 38.3049 149.548 37.4716L151.929 37.3466C152.001 37.6989 152.175 37.9678 152.452 38.1534C152.728 38.3352 153.082 38.4261 153.514 38.4261C153.938 38.4261 154.279 38.3447 154.537 38.1818C154.798 38.0152 154.931 37.8011 154.935 37.5398C154.931 37.3201 154.838 37.1402 154.656 37C154.474 36.8561 154.194 36.7462 153.815 36.6705L152.304 36.3693C151.452 36.1989 150.817 35.9034 150.401 35.483C149.988 35.0625 149.781 34.5265 149.781 33.875C149.781 33.3144 149.933 32.8314 150.236 32.4261C150.543 32.0208 150.973 31.7083 151.526 31.4886C152.082 31.2689 152.734 31.1591 153.48 31.1591C154.582 31.1591 155.45 31.392 156.082 31.858C156.719 32.3239 157.09 32.9583 157.196 33.7614ZM164.673 40H162.037L166.054 28.3636H169.224L173.236 40H170.599L167.685 31.0227H167.594L164.673 40ZM164.509 35.4261H170.736V37.3466H164.509V35.4261ZM174.591 43.2727V31.2727H176.977V32.7386H177.085C177.191 32.5038 177.345 32.2652 177.545 32.0227C177.75 31.7765 178.015 31.572 178.341 31.4091C178.67 31.2424 179.08 31.1591 179.568 31.1591C180.205 31.1591 180.792 31.3258 181.33 31.6591C181.867 31.9886 182.297 32.4867 182.619 33.1534C182.941 33.8163 183.102 34.6477 183.102 35.6477C183.102 36.6212 182.945 37.4432 182.631 38.1136C182.32 38.7803 181.896 39.286 181.358 39.6307C180.824 39.9716 180.225 40.142 179.562 40.142C179.093 40.142 178.693 40.0644 178.364 39.9091C178.038 39.7538 177.771 39.5587 177.562 39.3239C177.354 39.0852 177.195 38.8447 177.085 38.6023H177.011V43.2727H174.591ZM176.96 35.6364C176.96 36.1553 177.032 36.608 177.176 36.9943C177.32 37.3807 177.528 37.6818 177.801 37.8977C178.074 38.1098 178.405 38.2159 178.795 38.2159C179.189 38.2159 179.523 38.108 179.795 37.892C180.068 37.6723 180.275 37.3693 180.415 36.983C180.559 36.5928 180.631 36.1439 180.631 35.6364C180.631 35.1326 180.561 34.6894 180.42 34.3068C180.28 33.9242 180.074 33.625 179.801 33.4091C179.528 33.1932 179.193 33.0852 178.795 33.0852C178.402 33.0852 178.068 33.1894 177.795 33.3977C177.527 33.6061 177.32 33.9015 177.176 34.2841C177.032 34.6667 176.96 35.1174 176.96 35.6364ZM184.716 43.2727V31.2727H187.102V32.7386H187.21C187.316 32.5038 187.47 32.2652 187.67 32.0227C187.875 31.7765 188.14 31.572 188.466 31.4091C188.795 31.2424 189.205 31.1591 189.693 31.1591C190.33 31.1591 190.917 31.3258 191.455 31.6591C191.992 31.9886 192.422 32.4867 192.744 33.1534C193.066 33.8163 193.227 34.6477 193.227 35.6477C193.227 36.6212 193.07 37.4432 192.756 38.1136C192.445 38.7803 192.021 39.286 191.483 39.6307C190.949 39.9716 190.35 40.142 189.688 40.142C189.218 40.142 188.818 40.0644 188.489 39.9091C188.163 39.7538 187.896 39.5587 187.688 39.3239C187.479 39.0852 187.32 38.8447 187.21 38.6023H187.136V43.2727H184.716ZM187.085 35.6364C187.085 36.1553 187.157 36.608 187.301 36.9943C187.445 37.3807 187.653 37.6818 187.926 37.8977C188.199 38.1098 188.53 38.2159 188.92 38.2159C189.314 38.2159 189.648 38.108 189.92 37.892C190.193 37.6723 190.4 37.3693 190.54 36.983C190.684 36.5928 190.756 36.1439 190.756 35.6364C190.756 35.1326 190.686 34.6894 190.545 34.3068C190.405 33.9242 190.199 33.625 189.926 33.4091C189.653 33.1932 189.318 33.0852 188.92 33.0852C188.527 33.0852 188.193 33.1894 187.92 33.3977C187.652 33.6061 187.445 33.9015 187.301 34.2841C187.157 34.6667 187.085 35.1174 187.085 35.6364ZM202.102 33.7614L199.886 33.8977C199.848 33.7083 199.767 33.5379 199.642 33.3864C199.517 33.2311 199.352 33.108 199.148 33.017C198.947 32.9223 198.706 32.875 198.426 32.875C198.051 32.875 197.735 32.9545 197.477 33.1136C197.22 33.2689 197.091 33.4773 197.091 33.7386C197.091 33.947 197.174 34.1231 197.341 34.267C197.508 34.411 197.794 34.5265 198.199 34.6136L199.778 34.9318C200.627 35.1061 201.259 35.3864 201.676 35.7727C202.093 36.1591 202.301 36.6667 202.301 37.2955C202.301 37.8674 202.133 38.3693 201.795 38.8011C201.462 39.233 201.004 39.5701 200.42 39.8125C199.841 40.0511 199.172 40.1705 198.415 40.1705C197.259 40.1705 196.339 39.9299 195.653 39.4489C194.972 38.964 194.572 38.3049 194.455 37.4716L196.835 37.3466C196.907 37.6989 197.081 37.9678 197.358 38.1534C197.634 38.3352 197.989 38.4261 198.42 38.4261C198.845 38.4261 199.186 38.3447 199.443 38.1818C199.705 38.0152 199.837 37.8011 199.841 37.5398C199.837 37.3201 199.744 37.1402 199.562 37C199.381 36.8561 199.1 36.7462 198.722 36.6705L197.21 36.3693C196.358 36.1989 195.723 35.9034 195.307 35.483C194.894 35.0625 194.688 34.5265 194.688 33.875C194.688 33.3144 194.839 32.8314 195.142 32.4261C195.449 32.0208 195.879 31.7083 196.432 31.4886C196.989 31.2689 197.64 31.1591 198.386 31.1591C199.489 31.1591 200.356 31.392 200.989 31.858C201.625 32.3239 201.996 32.9583 202.102 33.7614Z" fill="white"/>
<rect x="20" y="15" width="23" height="16" rx="1" stroke="#F2F2F2" stroke-width="2"/>
<rect x="52" y="15" width="9" height="16" rx="1" stroke="#F2F2F2" stroke-width="2"/>
<rect x="20" y="36" width="8" height="16" rx="1" stroke="#F2F2F2" stroke-width="2"/>
<rect x="37" y="36" width="24" height="16" rx="1" stroke="#F2F2F2" stroke-width="2"/>
</svg>
