<svg width="1298" height="298" viewBox="0 0 1298 298" fill="none" xmlns="http://www.w3.org/2000/svg">
<rect width="1298" height="298" rx="149" fill="#141414"/>
<rect x="107.805" y="70.2122" width="40.3905" height="71.8054" rx="7.22066" stroke="#F2F2F2" stroke-width="7.69921"/>
<rect x="226.224" y="152.046" width="40.5259" height="72.0461" rx="7.22067" stroke="#F2F2F2" stroke-width="7.69921"/>
<rect x="161.238" y="69.7308" width="105.422" height="72.2065" rx="7.22065" stroke="#F2F2F2" stroke-width="7.69921"/>
<rect x="107.805" y="152.528" width="104.94" height="72.2065" rx="7.22065" stroke="#F2F2F2" stroke-width="7.69921"/>
<path d="M366.182 195.5L340.727 102.409H352.182L371.636 178.227H372.545L392.364 102.409H405.091L424.909 178.227H425.818L445.273 102.409H456.727L431.273 195.5H419.636L399.091 121.318H398.364L377.818 195.5H366.182ZM480.045 153.5V195.5H469.318V102.409H480.045V136.591H480.955C482.591 132.985 485.045 130.121 488.318 128C491.621 125.848 496.015 124.773 501.5 124.773C506.258 124.773 510.424 125.727 514 127.636C517.576 129.515 520.348 132.409 522.318 136.318C524.318 140.197 525.318 145.136 525.318 151.136V195.5H514.591V151.864C514.591 146.318 513.152 142.03 510.273 139C507.424 135.939 503.47 134.409 498.409 134.409C494.894 134.409 491.742 135.152 488.955 136.636C486.197 138.121 484.015 140.288 482.409 143.136C480.833 145.985 480.045 149.439 480.045 153.5ZM544.943 195.5V125.682H555.67V195.5H544.943ZM550.398 114.045C548.307 114.045 546.504 113.333 544.989 111.909C543.504 110.485 542.761 108.773 542.761 106.773C542.761 104.773 543.504 103.061 544.989 101.636C546.504 100.212 548.307 99.5 550.398 99.5C552.489 99.5 554.277 100.212 555.761 101.636C557.277 103.061 558.034 104.773 558.034 106.773C558.034 108.773 557.277 110.485 555.761 111.909C554.277 113.333 552.489 114.045 550.398 114.045ZM624.773 141.318L615.136 144.045C614.53 142.439 613.636 140.879 612.455 139.364C611.303 137.818 609.727 136.545 607.727 135.545C605.727 134.545 603.167 134.045 600.045 134.045C595.773 134.045 592.212 135.03 589.364 137C586.545 138.939 585.136 141.409 585.136 144.409C585.136 147.076 586.106 149.182 588.045 150.727C589.985 152.273 593.015 153.561 597.136 154.591L607.5 157.136C613.742 158.652 618.394 160.97 621.455 164.091C624.515 167.182 626.045 171.167 626.045 176.045C626.045 180.045 624.894 183.621 622.591 186.773C620.318 189.924 617.136 192.409 613.045 194.227C608.955 196.045 604.197 196.955 598.773 196.955C591.652 196.955 585.758 195.409 581.091 192.318C576.424 189.227 573.47 184.712 572.227 178.773L582.409 176.227C583.379 179.985 585.212 182.803 587.909 184.682C590.636 186.561 594.197 187.5 598.591 187.5C603.591 187.5 607.561 186.439 610.5 184.318C613.47 182.167 614.955 179.591 614.955 176.591C614.955 174.167 614.106 172.136 612.409 170.5C610.712 168.833 608.106 167.591 604.591 166.773L592.955 164.045C586.561 162.53 581.864 160.182 578.864 157C575.894 153.788 574.409 149.773 574.409 144.955C574.409 141.015 575.515 137.53 577.727 134.5C579.97 131.47 583.015 129.091 586.864 127.364C590.742 125.636 595.136 124.773 600.045 124.773C606.955 124.773 612.379 126.288 616.318 129.318C620.288 132.348 623.106 136.348 624.773 141.318ZM652.193 170.045L652.011 156.773H654.193L684.739 125.682H698.011L665.466 158.591H664.557L652.193 170.045ZM642.193 195.5V102.409H652.92V195.5H642.193ZM686.557 195.5L659.284 160.955L666.92 153.5L700.193 195.5H686.557ZM738.216 196.955C731.489 196.955 725.686 195.47 720.807 192.5C715.958 189.5 712.216 185.318 709.58 179.955C706.973 174.561 705.67 168.288 705.67 161.136C705.67 153.985 706.973 147.682 709.58 142.227C712.216 136.742 715.883 132.47 720.58 129.409C725.307 126.318 730.822 124.773 737.125 124.773C740.761 124.773 744.352 125.379 747.898 126.591C751.443 127.803 754.67 129.773 757.58 132.5C760.489 135.197 762.807 138.773 764.534 143.227C766.261 147.682 767.125 153.167 767.125 159.682V164.227H713.307V154.955H756.216C756.216 151.015 755.428 147.5 753.852 144.409C752.307 141.318 750.095 138.879 747.216 137.091C744.367 135.303 741.004 134.409 737.125 134.409C732.852 134.409 729.155 135.47 726.034 137.591C722.943 139.682 720.564 142.409 718.898 145.773C717.231 149.136 716.398 152.742 716.398 156.591V162.773C716.398 168.045 717.307 172.515 719.125 176.182C720.973 179.818 723.534 182.591 726.807 184.5C730.08 186.379 733.883 187.318 738.216 187.318C741.034 187.318 743.58 186.924 745.852 186.136C748.155 185.318 750.14 184.106 751.807 182.5C753.473 180.864 754.761 178.833 755.67 176.409L766.034 179.318C764.943 182.833 763.11 185.924 760.534 188.591C757.958 191.227 754.777 193.288 750.989 194.773C747.201 196.227 742.943 196.955 738.216 196.955ZM783.443 195.5V125.682H793.807V136.227H794.534C795.807 132.773 798.11 129.97 801.443 127.818C804.777 125.667 808.534 124.591 812.716 124.591C813.504 124.591 814.489 124.606 815.67 124.636C816.852 124.667 817.746 124.712 818.352 124.773V135.682C817.989 135.591 817.155 135.455 815.852 135.273C814.58 135.061 813.231 134.955 811.807 134.955C808.413 134.955 805.383 135.667 802.716 137.091C800.08 138.485 797.989 140.424 796.443 142.909C794.928 145.364 794.17 148.167 794.17 151.318V195.5H783.443ZM880.523 141.318L870.886 144.045C870.28 142.439 869.386 140.879 868.205 139.364C867.053 137.818 865.477 136.545 863.477 135.545C861.477 134.545 858.917 134.045 855.795 134.045C851.523 134.045 847.962 135.03 845.114 137C842.295 138.939 840.886 141.409 840.886 144.409C840.886 147.076 841.856 149.182 843.795 150.727C845.735 152.273 848.765 153.561 852.886 154.591L863.25 157.136C869.492 158.652 874.144 160.97 877.205 164.091C880.265 167.182 881.795 171.167 881.795 176.045C881.795 180.045 880.644 183.621 878.341 186.773C876.068 189.924 872.886 192.409 868.795 194.227C864.705 196.045 859.947 196.955 854.523 196.955C847.402 196.955 841.508 195.409 836.841 192.318C832.174 189.227 829.22 184.712 827.977 178.773L838.159 176.227C839.129 179.985 840.962 182.803 843.659 184.682C846.386 186.561 849.947 187.5 854.341 187.5C859.341 187.5 863.311 186.439 866.25 184.318C869.22 182.167 870.705 179.591 870.705 176.591C870.705 174.167 869.856 172.136 868.159 170.5C866.462 168.833 863.856 167.591 860.341 166.773L848.705 164.045C842.311 162.53 837.614 160.182 834.614 157C831.644 153.788 830.159 149.773 830.159 144.955C830.159 141.015 831.265 137.53 833.477 134.5C835.72 131.47 838.765 129.091 842.614 127.364C846.492 125.636 850.886 124.773 855.795 124.773C862.705 124.773 868.129 126.288 872.068 129.318C876.038 132.348 878.856 136.348 880.523 141.318ZM939.216 195.5H927.398L961.58 102.409H973.216L1007.4 195.5H995.58L967.761 117.136H967.034L939.216 195.5ZM943.58 159.136H991.216V169.136H943.58V159.136ZM1020.44 221.682V125.682H1030.81V136.773H1032.08C1032.87 135.561 1033.96 134.015 1035.35 132.136C1036.78 130.227 1038.81 128.53 1041.44 127.045C1044.11 125.53 1047.72 124.773 1052.26 124.773C1058.14 124.773 1063.32 126.242 1067.81 129.182C1072.29 132.121 1075.79 136.288 1078.31 141.682C1080.82 147.076 1082.08 153.439 1082.08 160.773C1082.08 168.167 1080.82 174.576 1078.31 180C1075.79 185.394 1072.31 189.576 1067.85 192.545C1063.4 195.485 1058.26 196.955 1052.44 196.955C1047.96 196.955 1044.37 196.212 1041.67 194.727C1038.97 193.212 1036.9 191.5 1035.44 189.591C1033.99 187.652 1032.87 186.045 1032.08 184.773H1031.17V221.682H1020.44ZM1030.99 160.591C1030.99 165.864 1031.76 170.515 1033.31 174.545C1034.85 178.545 1037.11 181.682 1040.08 183.955C1043.05 186.197 1046.69 187.318 1050.99 187.318C1055.47 187.318 1059.22 186.136 1062.22 183.773C1065.25 181.379 1067.52 178.167 1069.03 174.136C1070.58 170.076 1071.35 165.561 1071.35 160.591C1071.35 155.682 1070.59 151.258 1069.08 147.318C1067.59 143.348 1065.34 140.212 1062.31 137.909C1059.31 135.576 1055.53 134.409 1050.99 134.409C1046.63 134.409 1042.96 135.515 1039.99 137.727C1037.02 139.909 1034.78 142.97 1033.26 146.909C1031.75 150.818 1030.99 155.379 1030.99 160.591ZM1098.44 221.682V125.682H1108.81V136.773H1110.08C1110.87 135.561 1111.96 134.015 1113.35 132.136C1114.78 130.227 1116.81 128.53 1119.44 127.045C1122.11 125.53 1125.72 124.773 1130.26 124.773C1136.14 124.773 1141.32 126.242 1145.81 129.182C1150.29 132.121 1153.79 136.288 1156.31 141.682C1158.82 147.076 1160.08 153.439 1160.08 160.773C1160.08 168.167 1158.82 174.576 1156.31 180C1153.79 185.394 1150.31 189.576 1145.85 192.545C1141.4 195.485 1136.26 196.955 1130.44 196.955C1125.96 196.955 1122.37 196.212 1119.67 194.727C1116.97 193.212 1114.9 191.5 1113.44 189.591C1111.99 187.652 1110.87 186.045 1110.08 184.773H1109.17V221.682H1098.44ZM1108.99 160.591C1108.99 165.864 1109.76 170.515 1111.31 174.545C1112.85 178.545 1115.11 181.682 1118.08 183.955C1121.05 186.197 1124.69 187.318 1128.99 187.318C1133.47 187.318 1137.22 186.136 1140.22 183.773C1143.25 181.379 1145.52 178.167 1147.03 174.136C1148.58 170.076 1149.35 165.561 1149.35 160.591C1149.35 155.682 1148.59 151.258 1147.08 147.318C1145.59 143.348 1143.34 140.212 1140.31 137.909C1137.31 135.576 1133.53 134.409 1128.99 134.409C1124.63 134.409 1120.96 135.515 1117.99 137.727C1115.02 139.909 1112.78 142.97 1111.26 146.909C1109.75 150.818 1108.99 155.379 1108.99 160.591ZM1225.9 141.318L1216.26 144.045C1215.66 142.439 1214.76 140.879 1213.58 139.364C1212.43 137.818 1210.85 136.545 1208.85 135.545C1206.85 134.545 1204.29 134.045 1201.17 134.045C1196.9 134.045 1193.34 135.03 1190.49 137C1187.67 138.939 1186.26 141.409 1186.26 144.409C1186.26 147.076 1187.23 149.182 1189.17 150.727C1191.11 152.273 1194.14 153.561 1198.26 154.591L1208.62 157.136C1214.87 158.652 1219.52 160.97 1222.58 164.091C1225.64 167.182 1227.17 171.167 1227.17 176.045C1227.17 180.045 1226.02 183.621 1223.72 186.773C1221.44 189.924 1218.26 192.409 1214.17 194.227C1210.08 196.045 1205.32 196.955 1199.9 196.955C1192.78 196.955 1186.88 195.409 1182.22 192.318C1177.55 189.227 1174.59 184.712 1173.35 178.773L1183.53 176.227C1184.5 179.985 1186.34 182.803 1189.03 184.682C1191.76 186.561 1195.32 187.5 1199.72 187.5C1204.72 187.5 1208.69 186.439 1211.62 184.318C1214.59 182.167 1216.08 179.591 1216.08 176.591C1216.08 174.167 1215.23 172.136 1213.53 170.5C1211.84 168.833 1209.23 167.591 1205.72 166.773L1194.08 164.045C1187.69 162.53 1182.99 160.182 1179.99 157C1177.02 153.788 1175.53 149.773 1175.53 144.955C1175.53 141.015 1176.64 137.53 1178.85 134.5C1181.09 131.47 1184.14 129.091 1187.99 127.364C1191.87 125.636 1196.26 124.773 1201.17 124.773C1208.08 124.773 1213.5 126.288 1217.44 129.318C1221.41 132.348 1224.23 136.348 1225.9 141.318Z" fill="white"/>
</svg>
